#N canvas 924 465 450 300 12;
#X obj 57 25 inlet~;
#X obj 313 106 outlet~;
#X obj 243 56 +~;
#X obj 56 95 delwrite~ \$0-mios_delay 2000;
#X obj 68 180 *~ 0.5;
#X obj 54 122 delread~ \$0-mios_delay 500;
#X connect 0 0 2 0;
#X connect 0 0 3 0;
#X connect 2 0 1 0;
#X connect 4 0 2 1;
#X connect 5 0 4 0;
