#N canvas 1052 233 450 300 12;
#X obj 58 67 /home/patch/MIOS/pd/modules/audio_input;
#X obj 58 92 /home/patch/MIOS/pd/modules/gain;
#X obj 32 189 /home/patch/MIOS/pd/modules/audio_output;
#X obj 51 135 /home/patch/MIOS/pd/modules/delay;
#X obj 325 8 loadbang;
#X msg 325 33 \; pd dsp 1;
#X connect 0 0 1 0;
#X connect 1 0 3 0;
#X connect 3 0 2 0;
#X connect 4 0 5 0;
